<?xml version="1.0" encoding="utf-8"?>
<!-- Generator: Adobe Illustrator 25.2.0, SVG Export Plug-In . SVG Version: 6.00 Build 0)  -->
<svg version="1.1" id="Layer_1" xmlns="http://www.w3.org/2000/svg" xmlns:xlink="http://www.w3.org/1999/xlink" x="0px" y="0px"
	 viewBox="0 0 500 500" style="enable-background:new 0 0 500 500;" xml:space="preserve">
<style type="text/css">
	.st0{fill:#FFFFFF;stroke:#FFFFFF;stroke-width:0.75;stroke-miterlimit:10;}
	.st1{font-family:'Avenir-Roman';}
	.st2{font-size:27.3527px;}
	.st3{font-size:28.7024px;}
	.st4{fill:#FFFFFF;}
	.st5{fill:#FFEF7B;stroke:#F7941D;stroke-miterlimit:10;}
	.st6{fill:#F8BDD7;}
	.st7{stroke:#000000;stroke-width:3;stroke-miterlimit:10;}
	.st8{fill:#FFFFFF;stroke:#FFFFFF;stroke-width:3;stroke-miterlimit:10;}
</style>
<g id="background">
</g>
<g id="text">
	<text transform="matrix(1.0189 0 0 1 84.3286 255.6055)" class="st0 st1 st2">future</text>
	<text transform="matrix(0.9325 0 0 1 339.8109 255.2607)" class="st0 st1 st3">cat newz</text>
</g>
<g id="cat">
	<path d="M304.48,257.44c-1.92,7.34-6.32,24.19-22.01,35.23c-19.69,13.86-46.37,11.03-64.1,0c-16.59-10.32-23-26.02-25.64-32.47
		c-3.33-8.14-10.41-26.1-2.57-45.3c10.26-25.15,37.7-31.57,41.88-32.48c13.34-2.89,24.14-0.36,29.06,0.85
		c6.94,1.71,25.9,6.38,37.61,23.93C312.3,227.56,306.29,250.53,304.48,257.44z"/>
	<path class="st4" d="M534.62,237.99"/>
	<path d="M299.63,210.6c8.24-11.72,19.55-29.62,14.39-33.99c-5.54-4.69-27.7,8.2-40.2,16.05"/>
	<path d="M222.07,193.66c-9.6-10.65-24.52-25.65-29.93-21.59c-5.8,4.36,1.83,28.83,6.7,42.76"/>
	<path class="st5" d="M277.41,182.01c-0.61,0.34,0.5,3.21-0.39,6.41c-1.08,3.87-4.11,4.63-3.87,6.41c0.16,1.17,1.49,0.97,3.48,2.67
		c3.05,2.62,3.51,6.18,4.64,5.88c1.06-0.28,0.59-3.36,2.32-6.94c1.88-3.89,4.48-4.5,4.26-5.88c-0.25-1.55-3.47-0.3-6.58-3.2
		C278.82,185.05,278.05,181.65,277.41,182.01z"/>
	<path class="st6" d="M252.42,258.57c-1.21-0.04-1.63,1.02-5.09,4.53c-3.34,3.39-4.47,3.94-4.14,4.78c0.54,1.36,4.18,1.54,8.91,1.76
		c4.16,0.2,6.57,0.29,7.32-0.75c0.37-0.52,0.2-1.14-2.23-4.78C253.71,258.88,253.03,258.59,252.42,258.57z"/>
	<path class="st7" d="M415.81,269.77"/>
	<path class="st7" d="M359.4,281.56"/>
	<path class="st8" d="M273.82,260.86c58.21-14.45,50.6-11.36,48.8-10.94"/>
	<path class="st7" d="M308.32,287.31"/>
	<polyline class="st8" points="447.44,268.1 341.36,268.1 272.93,268.1 	"/>
	<line class="st8" x1="273.67" y1="275.35" x2="324.1" y2="289.88"/>
	<path class="st8" d="M226.09,261.01c-57.43-14.45-49.92-11.36-48.14-10.94"/>
	<polyline class="st8" points="61.11,268.25 161.93,268.25 226.98,268.25 	"/>
	<line class="st8" x1="226.24" y1="275.5" x2="176.5" y2="290.03"/>
	<path class="st4" d="M271.6,229.56c-0.16,0.12-2.69,2.18-2.49,5.61c0.16,2.8,2.03,4.49,3.4,4.91c2.3,0.7,5.13-1.55,5.44-4.91
		c0.24-2.68-1.23-4.74-1.36-4.91C275.12,228.28,273.02,228.44,271.6,229.56z"/>
	<path class="st4" d="M223.26,229.56c-0.16,0.12-2.69,2.18-2.49,5.61c0.16,2.8,2.03,4.49,3.4,4.91c2.3,0.7,5.13-1.55,5.44-4.91
		c0.24-2.68-1.23-4.74-1.36-4.91C226.79,228.28,224.69,228.44,223.26,229.56z"/>
</g>
</svg>
